<svg data-bbox="45.002 9.499 109.998 181.002" viewBox="45.002 9.499 109.998 181.002" height="200" width="200" xmlns="http://www.w3.org/2000/svg" data-type="color"><path d="M153.792 73.984c-.633-10.514-1.516-21.013-2.706-31.481a684.42 684.42 0 00-1.951-15.464c-.705-5.114-1.271-10.529-3.748-15.105-.526-.974-1.716-1.332-2.742-1.107-.592-.482-1.379-.789-2.359-.794l-9.068-.031c-2.768-.005-5.923-.374-8.445 1.009-2.579 1.414-4.228 4.371-5.877 6.707a213.701 213.701 0 00-5.132 7.624c-3.334 5.16-6.541 10.417-9.676 15.704-1.624 2.736-3.094 5.549-4.534 8.388-.071.133-.143.272-.22.41-7.393-9.164-14.638-18.454-21.94-27.687l-5.3-6.697c-1.614-2.044-3.018-4.212-5.504-5.237-2.308-.948-4.989-.728-7.434-.63-3.079.123-6.122.482-9.165.989-.429.072-.853.292-1.225.605a.883.883 0 00-.495.456l-.031.087c-.521.646-.848 1.46-.776 2.183.005.072.015.143.021.215-.684 3.141-.434 6.62-.454 9.735-.031 4.56.031 9.12.082 13.68.102 8.792.352 17.57.608 26.357.255 8.654.184 17.39.756 26.024.245 3.745 2.293 6.476 6.127 6.958 4.095.518 8.599-.169 12.699-.456 1.961-.138 3.784-1.599 3.722-3.73-.541-18.02-1.093-36.041-1.792-54.056.7.989 1.389 1.968 1.981 2.956 2.849 4.704 6.418 9.161 9.737 13.547 3.309 4.36 6.617 8.726 9.931 13.081 1.399 1.839 2.681 3.602 5.065 4.125 2.497.553 5.53-.287 8.037-.584 1.986-.231 3.656-1.527 3.676-3.689 1.67-1.471 3.089-3.366 4.391-4.97a260.1 260.1 0 007.531-9.704c2.568-3.469 5.111-6.953 7.669-10.432 2.032-2.767 4.539-5.482 6.526-8.398.046 2.557.097 5.103.22 7.655l.868 18.261c.582 12.174 1.215 24.348 1.843 36.522.283 5.506.655 11.156.867 16.845-.21 2.47-.455 4.937-.816 7.399a186.078 186.078 0 01-3.214 16.601c-2.179 9.022-4.499 20.019-10.858 27.155-5.456 6.123-14.601 8.863-22.349 5.685-3.573-1.465-6.894-4.132-9.024-7.36-2.531-3.836-2.742-8.148-4.432-12.309a16.808 16.808 0 00-2.042-3.684c-5.358-.032-10.753-.284-16.025.265-.263.307-.458.662-.527 1.042-2.027 11.18 1.583 22.806 9.17 31.209 4.07 4.504 9.17 7.414 15.093 8.675.506.108 1.016.195 1.522.287 1.823.994 4.075 1.348 6.372 1.481 5.443.312 11.085.451 16.38-1.071 2.262-.651 4.417-1.599 6.444-2.767a37.43 37.43 0 007.644-3.592c6.653-4.12 11.764-10.14 14.787-17.365.317-.748.603-1.511.883-2.285 5.862-10.647 8.139-23.805 9.344-35.298 1.877-17.842.937-36.072-.135-53.939z" fill="#B9E5FB" data-color="1"/></svg>